<svg width="46" height="46" fill="none" xmlns="http://www.w3.org/2000/svg"><path d="M44.365 7.368c-.966-.045-3.003-.185-3.417-.385-.517-.25-6.043-4.052-8.783-4.024-2.192.023-3.334 1.399-3.631 2.084l-.962 7.645-3.17 25.183c-.514 3.118-4.014 8.937-13.902 7.277C.614 43.488-.117 35.56.754 31.805l4.18-10.417C3.456 21.025.71 20.19 1.554 19.75c.844-.44 11.298-1.623 16.42-2.16.334-.006.925.133.619.747-.307.613-4.683 11.604-6.833 17.022-.21.432-.425 1.36.384 1.622 1.012.326 1.5.132 1.805-.735.245-.693 9.38-23.406 13.918-34.675.69-.583 2.666-1.451 5.246-.97 5.207.97 7.4 3.803 8.395 4.99.793.401 2.536 1.167 3.161 1.022.626-.145.059.443-.303.755z" fill="#FAF3E8"/><path d="M27.048 16.846l.524-4.158a6.54 6.54 0 014.055-.284c2.54.623 5.165 3.153 6.16 4.34.793.4 2.535 1.166 3.161 1.021.626-.145.059.443-.303.755-.967-.045-3.003-.185-3.417-.385-.517-.249-3.808-3.4-6.548-3.372-2.192.023-3.335 1.398-3.632 2.083z" fill="#FAF3E8"/><path d="M27.048 16.846c.297-.685 1.44-2.06 3.632-2.083 2.74-.028 6.03 3.123 6.548 3.372.414.2 2.45.34 3.417.385.362-.312.929-.9.303-.755-.626.145-2.368-.62-3.161-1.021-.995-1.187-3.62-3.717-6.16-4.34a6.54 6.54 0 00-4.055.284m-.524 4.158l-.667-3.472c.243-.205.652-.465 1.19-.686m-.523 4.158l.524-4.158m0 0l.962-7.645c.297-.685 1.44-2.06 3.631-2.084 2.74-.028 8.266 3.775 8.783 4.024.414.2 2.45.34 3.417.385.362-.312.929-.9.303-.755-.625.145-2.368-.62-3.161-1.021C40.512 4.404 38.319 1.57 33.112.6c-2.58-.481-4.556.387-5.246.97-4.537 11.27-13.673 33.982-13.918 34.675-.306.867-.793 1.061-1.805.735-.81-.262-.593-1.19-.384-1.622 2.15-5.418 6.526-16.409 6.833-17.022.306-.614-.285-.753-.619-.747-5.122.537-15.576 1.72-16.42 2.16-.844.44 1.902 1.275 3.38 1.638L.754 31.805c-.87 3.756-.14 11.682 9.748 13.343 9.887 1.66 13.387-4.16 13.901-7.277l3.17-25.183z" stroke="#FAF3E8" stroke-width=".943" stroke-linecap="round"/></svg>