<svg width="30" height="37" fill="none" xmlns="http://www.w3.org/2000/svg"><path d="M11.665 34.995V24.046M14.998 16.664h.017M14.998 9.999h.017M18.33 24.046v10.949M19.997 24.996a8.332 8.332 0 00-9.998 0M21.663 16.664h.017M21.663 9.999h.017M8.332 16.664h.017M8.332 9.999h.017" stroke="#FF5733" stroke-width="3.333" stroke-linecap="round" stroke-linejoin="round"/><path d="M24.996 1.666H5A3.333 3.333 0 001.667 5v26.663a3.333 3.333 0 003.332 3.333h19.997a3.333 3.333 0 003.333-3.333V4.999a3.333 3.333 0 00-3.333-3.333z" stroke="#FF5733" stroke-width="3.333" stroke-linecap="round" stroke-linejoin="round"/></svg>