<svg width="37" height="24" fill="none" xmlns="http://www.w3.org/2000/svg"><path d="M29.996 18.33h3.332c1 0 1.667-.666 1.667-1.666v-5c0-1.499-1.167-2.832-2.5-3.165-3-.834-7.499-1.833-7.499-1.833S22.83 4.333 21.33 2.833c-.833-.667-1.833-1.167-3-1.167H6.667c-1 0-1.833.667-2.333 1.5L2 8a6.166 6.166 0 00-.333 2v6.665c0 1 .666 1.666 1.666 1.666h3.333" stroke="#FF5733" stroke-width="3.333" stroke-linecap="round" stroke-linejoin="round"/><path d="M9.999 21.663a3.333 3.333 0 100-6.665 3.333 3.333 0 000 6.665zM13.332 18.33h9.998M26.663 21.663a3.333 3.333 0 100-6.665 3.333 3.333 0 000 6.665z" stroke="#FF5733" stroke-width="3.333" stroke-linecap="round" stroke-linejoin="round"/></svg>