<svg width="12" height="13" fill="none" xmlns="http://www.w3.org/2000/svg"><path d="M2.528 12.32c0-.139-.027-.208-.08-.208l-.368.176c0-.075-.043-.128-.128-.16l-.128-.016a.676.676 0 00-.32.112 1.114 1.114 0 00-.08-.16 2.211 2.211 0 01-.08-.144c-.139-.267-.277-.56-.416-.88-.128-.33-.25-.645-.368-.944a50.223 50.223 0 00-.256-.704 6.41 6.41 0 01-.144-.624A16.82 16.82 0 010 7.712c.117.075.208.112.272.112.075 0 .144-.112.208-.336.032.043.09.064.176.064.064 0 .112-.021.144-.064l.256-.384.288.096h.016c.021 0 .043-.01.064-.032a.372.372 0 01.096-.064c.085-.053.15-.08.192-.08l.048.016c.267.128.437.363.512.704.192.81.384 1.216.576 1.216.192 0 .416-.203.672-.608.128-.203.256-.437.384-.704.139-.267.277-.565.416-.896.021.128.043.192.064.192.053 0 .144-.133.272-.4.139-.267.357-.635.656-1.104.17-.288.384-.613.64-.976a65.453 65.453 0 011.712-2.208c.288-.341.544-.635.768-.88.224-.245.39-.405.496-.48a5.58 5.58 0 00.96-.8c-.01.075-.027.144-.048.208a.675.675 0 00-.016.112c0 .043.021.064.064.064l.448-.224V.32c0 .085.021.128.064.128.032 0 .096-.048.192-.144.096-.096.15-.165.16-.208L10.72.32l.544-.32-.128.288c.17-.117.293-.176.368-.176.043 0 .075.027.096.08a.284.284 0 01.032.128.44.44 0 01-.08.224 5.433 5.433 0 01-.208.304c-.064.085-.17.213-.32.384-.139.16-.352.4-.64.72-.288.31-.672.741-1.152 1.296-.128.139-.325.384-.592.736-.267.341-.57.741-.912 1.2-.33.448-.661.901-.992 1.36-.33.459-.624.875-.88 1.248-.256.363-.437.635-.544.816l-.992 1.68-.528.896a3.914 3.914 0 01-.32.464 3.42 3.42 0 01-.528.512l-.144-.08-.128.08-.144.16z" fill="#FF5733"/></svg>