<svg width="82" height="58" fill="none" xmlns="http://www.w3.org/2000/svg"><path d="M37.116 30.105h2.248l1.72 10.561h-1.66l-.301-2.097v.03h-1.887l-.301 2.067h-1.54l1.72-10.561zm1.81 7.06l-.739-5.22h-.03l-.724 5.22h1.493zm2.963-7.06h2.082l1.615 6.321h.03v-6.322h1.479v10.562H45.39l-1.992-7.71h-.03v7.71h-1.479V30.105zm6.44 0h4.39v1.508h-2.731v2.943h2.142v1.508h-2.142v4.602h-1.66V30.105zm5.982 0h2.248l1.72 10.561h-1.66l-.301-2.097v.03h-1.886l-.302 2.067h-1.539l1.72-10.561zm1.81 7.06l-.739-5.22h-.03l-.724 5.22h1.494zm2.711-5.461h-.543v-1.6h1.6v1.434l-.921 1.976h-.77l.634-1.81zm-20.66 23.113c-.795 0-1.403-.226-1.826-.679-.412-.452-.618-1.091-.618-1.916v-5.673c0-.825.206-1.464.618-1.916.423-.453 1.031-.68 1.826-.68.795 0 1.398.227 1.81.68.423.452.634 1.091.634 1.916v1.116h-1.569v-1.222c0-.654-.277-.98-.83-.98-.553 0-.83.326-.83.98v5.9c0 .643.277.965.83.965.553 0 .83-.322.83-.965v-1.615h1.57v1.494c0 .825-.212 1.464-.634 1.916-.413.453-1.016.68-1.811.68zm5.866 0c-.815 0-1.439-.231-1.871-.694-.433-.462-.649-1.116-.649-1.961v-5.553c0-.845.216-1.499.649-1.961.432-.463 1.056-.694 1.87-.694.816 0 1.44.231 1.872.694.432.462.648 1.116.648 1.961v5.553c0 .845-.216 1.498-.648 1.961-.433.463-1.056.694-1.871.694zm0-1.509c.573 0 .86-.347.86-1.04v-5.764c0-.694-.287-1.042-.86-1.042-.574 0-.86.347-.86 1.041v5.764c0 .694.286 1.041.86 1.041zm3.642-9.203h2.369l1.056 7.559h.03l1.056-7.56h2.37v10.562h-1.57V46.67h-.03l-1.207 7.996h-1.388l-1.207-7.996h-.03v7.996h-1.45V44.105zm9.416 1.508h-1.735v-1.508h5.13v1.508h-1.735v9.053h-1.66v-9.053zm6.539 9.204c-.815 0-1.438-.231-1.871-.694-.433-.462-.649-1.116-.649-1.961v-5.553c0-.845.216-1.499.649-1.961.432-.463 1.056-.694 1.87-.694.816 0 1.44.231 1.872.694.432.462.649 1.116.649 1.961v5.553c0 .845-.217 1.498-.65 1.961-.432.463-1.055.694-1.87.694zm0-1.509c.573 0 .86-.347.86-1.04v-5.764c0-.694-.287-1.042-.86-1.042s-.86.347-.86 1.041v5.764c0 .694.287 1.041.86 1.041zm3.642-9.203h1.66v10.561h-1.66V44.105zm5.06 10.712c-.804 0-1.413-.226-1.825-.679-.413-.462-.619-1.121-.619-1.976v-.604h1.57v.724c0 .684.286 1.026.86 1.026.281 0 .492-.08.633-.241.151-.171.226-.443.226-.815 0-.442-.1-.83-.301-1.162-.201-.342-.574-.749-1.117-1.222-.684-.603-1.162-1.147-1.433-1.63a3.38 3.38 0 01-.408-1.659c0-.835.212-1.479.634-1.931.422-.463 1.036-.694 1.84-.694.795 0 1.394.231 1.796.694.413.452.619 1.106.619 1.961v.438h-1.57v-.543c0-.363-.07-.624-.21-.785-.141-.171-.347-.257-.62-.257-.552 0-.829.337-.829 1.011 0 .383.1.74.302 1.072.211.332.588.734 1.131 1.207.694.603 1.172 1.151 1.434 1.644.261.493.392 1.072.392 1.736 0 .865-.216 1.529-.649 1.991-.422.463-1.04.694-1.855.694zm3.457-10.712h4.526v1.508h-2.866v2.792h2.278v1.508h-2.278v3.245h2.866v1.508h-4.526V44.105z" fill="#FAF3E8"/><path d="M50.963 13.747c-.966-.045-3.003-.186-3.417-.385-.517-.25-6.043-4.052-8.783-4.024-2.192.023-3.334 1.398-3.631 2.083l-.962 7.646L31 44.25c-.514 3.117-4.014 8.937-13.901 7.277C7.21 49.867 6.48 41.939 7.35 38.183l4.18-10.416c-1.478-.363-4.224-1.199-3.38-1.639.844-.44 11.299-1.622 16.42-2.159.334-.007.925.133.619.746-.307.614-4.683 11.605-6.833 17.023-.21.432-.425 1.36.384 1.621 1.012.327 1.5.133 1.805-.734.245-.694 9.38-23.406 13.918-34.675.69-.583 2.666-1.452 5.246-.97 5.207.97 7.4 3.803 8.395 4.99.793.401 2.536 1.167 3.161 1.021.626-.145.059.444-.303.756z" fill="#FAF3E8"/><path d="M33.646 23.225l.523-4.158a6.54 6.54 0 014.056-.285c2.54.623 5.165 3.153 6.16 4.34.793.401 2.536 1.167 3.161 1.022.626-.146.059.443-.303.755-.966-.045-3.003-.185-3.417-.385-.517-.25-3.808-3.4-6.548-3.372-2.192.022-3.334 1.398-3.632 2.083z" fill="#FAF3E8"/><path d="M33.646 23.225c.297-.685 1.44-2.06 3.632-2.084 2.74-.028 6.03 3.124 6.548 3.373.414.2 2.45.34 3.417.385.362-.312.929-.9.303-.755-.625.145-2.368-.62-3.161-1.021-.995-1.188-3.62-3.718-6.16-4.34a6.54 6.54 0 00-4.056.284m-.523 4.158l-.667-3.472c.243-.206.652-.465 1.19-.686m-.523 4.158l.523-4.158m0 0l.963-7.646c.297-.685 1.44-2.06 3.631-2.083 2.74-.028 8.266 3.774 8.783 4.024.414.2 2.45.34 3.417.385.362-.313.93-.9.303-.756-.625.146-2.368-.62-3.161-1.02-.995-1.188-3.188-4.021-8.395-4.992-2.58-.48-4.556.388-5.246.97-4.537 11.27-13.673 33.983-13.918 34.676-.306.867-.793 1.061-1.805.734-.81-.261-.593-1.19-.384-1.62 2.15-5.42 6.526-16.41 6.833-17.024.306-.613-.285-.753-.619-.746-5.122.537-15.576 1.72-16.42 2.16-.844.44 1.902 1.275 3.38 1.638l-4.18 10.416c-.87 3.756-.14 11.683 9.748 13.344 9.887 1.66 13.387-4.16 13.901-7.277l3.17-25.183z" stroke="#FAF3E8" stroke-width=".943" stroke-linecap="round"/></svg>