<svg width="59" height="54" fill="none" xmlns="http://www.w3.org/2000/svg"><path d="M39.994 50.659v-5.333a10.665 10.665 0 00-10.665-10.665H13.33A10.665 10.665 0 002.666 45.326v5.333M39.994 3.008a10.665 10.665 0 010 20.647M55.992 50.659v-5.332a10.666 10.666 0 00-8-10.319M21.33 23.996c5.89 0 10.665-4.774 10.665-10.665 0-5.89-4.775-10.665-10.665-10.665-5.89 0-10.665 4.775-10.665 10.665 0 5.89 4.775 10.665 10.665 10.665z" stroke="#FF5733" stroke-width="5.333" stroke-linecap="round" stroke-linejoin="round"/></svg>