<svg width="37" height="34" fill="none" xmlns="http://www.w3.org/2000/svg"><path d="M24.984 31.662V28.33a6.668 6.668 0 00-6.662-6.665H8.329a6.66 6.66 0 00-6.663 6.665v3.333M24.984 1.88a6.662 6.662 0 014.99 6.452 6.668 6.668 0 01-4.99 6.452M34.977 31.662v-3.333a6.668 6.668 0 00-4.996-6.45M13.325 14.998a6.664 6.664 0 006.663-6.666 6.664 6.664 0 00-6.663-6.666 6.664 6.664 0 00-6.662 6.666 6.664 6.664 0 006.662 6.666z" stroke="#FFD966" stroke-width="3.333" stroke-linecap="round" stroke-linejoin="round"/></svg>