<svg width="64" height="64" fill="none" xmlns="http://www.w3.org/2000/svg"><path d="M0 31.995C0 14.325 14.325 0 31.995 0S63.99 14.325 63.99 31.995 49.666 63.99 31.995 63.99C14.325 63.99 0 49.666 0 31.995z" fill="url(#a)"/><path d="M18.664 28.662a7.332 7.332 0 0112.786-4.9.748.748 0 001.09 0 7.319 7.319 0 0112.787 4.9c0 3.053-2 5.333-4 7.333l-7.322 7.083a2.666 2.666 0 01-3.999.025l-7.343-7.108c-2-2-4-4.266-4-7.333z" stroke="#FAF3E8" stroke-width="2.666" stroke-linecap="round" stroke-linejoin="round"/><defs><linearGradient id="a" x1="31.995" y1="0" x2="31.995" y2="63.99" gradientUnits="userSpaceOnUse"><stop stop-color="#FF5733"/><stop offset="1" stop-color="#FFD966"/></linearGradient></defs></svg>